# xmcd CD database file
#
# Track frame offsets:
#	150
#	23320
#	46193
#	67925
#	86695
#	106706
#	133807
#	156418
#	176597
#	195837
#	218722
#	241270
#	261797
#	284412
#
# Disc length: 4216 seconds
#
# Revision: 0
# Processed by: cddbd v1.5.2PL0 Copyright (c) Steve Scherf et al.
# Submitted via: CDex 1.51
#
DISCID=b310760e
DTITLE=Puerto Rican Power - Historia Musical 14 Exitos
DYEAR=1900
DGENRE=Salsa
TTITLE0=A donde iras
TTITLE1=Juguete de Nadie
TTITLE2=Quiero Volver Contigo
TTITLE3=No puedo Presindir de Ti
TTITLE4=Quiereme tal como Soy
TTITLE5=Noche de Boda
TTITLE6=Voy a Ti, Voy a Mi
TTITLE7=Amor no se Puede Apurar
TTITLE8=Eso se Acabo
TTITLE9=No me Acostumbro
TTITLE10=Estoy Enamorado
TTITLE11=Otro poco
TTITLE12=Para Amarte Ahora
TTITLE13=Extend Mix
EXTD=
EXTT0=
EXTT1=
EXTT2=
EXTT3=
EXTT4=
EXTT5=
EXTT6=
EXTT7=
EXTT8=
EXTT9=
EXTT10=
EXTT11=
EXTT12=
EXTT13=
PLAYORDER=
